/* XPM */
static char *_1e972d6623940d2e118b91ae05d4f79gsLDQwapebyQtqdD[] = {
/* columns rows colors chars-per-pixel */
"50 50 212 2 ",
"   c None",
".  c #0F0B00",
"X  c #1C0D00",
"o  c #160F00",
"O  c #1D1200",
"+  c #141000",
"@  c #200E00",
"#  c #221300",
"$  c #241A00",
"%  c #2B1D00",
"&  c #311D00",
"*  c #2C1E10",
"=  c #2B2100",
"-  c #2D2903",
";  c #342400",
":  c #342A00",
">  c #392B00",
",  c #272524",
"<  c #342F31",
"1  c #323032",
"2  c #4B3B01",
"3  c #513C00",
"4  c #5F4B00",
"5  c #594807",
"6  c #574811",
"7  c #624C00",
"8  c #645411",
"9  c #786407",
"0  c #78671A",
"q  c #6E651A",
"w  c #6A5C25",
"e  c #635B39",
"r  c #7B6C33",
"t  c #756A35",
"y  c #675E4A",
"u  c #6C654D",
"i  c #6C6050",
"p  c #7B6F51",
"a  c #777048",
"s  c #957C00",
"d  c #997E00",
"f  c #9D7600",
"g  c #846B19",
"h  c #83721A",
"j  c #A27D00",
"k  c #8B7A25",
"l  c #90792C",
"z  c #80785E",
"x  c #9B8300",
"c  c #978000",
"v  c #A38400",
"b  c #AA8500",
"n  c #A48A00",
"m  c #AC8B00",
"M  c #A48D0D",
"N  c #B18500",
"B  c #B28D00",
"V  c #B88200",
"C  c #AC9301",
"Z  c #AB9500",
"A  c #B49201",
"S  c #BA9400",
"D  c #B69C00",
"F  c #BB9B02",
"G  c #B1940C",
"H  c #B59A0C",
"J  c #BA9A0A",
"K  c #BC9E12",
"L  c #BD9E1C",
"P  c #B49915",
"I  c #A7971E",
"U  c #BEA202",
"Y  c #B6A00E",
"T  c #BCA31C",
"R  c #BDA618",
"E  c #96842C",
"W  c #978028",
"Q  c #9A8937",
"!  c #A08A27",
"~  c #AC962A",
"^  c #B39C24",
"/  c #BA9D28",
"(  c #A58D37",
")  c #A49339",
"_  c #B39937",
"`  c #BDA222",
"'  c #BDA728",
"]  c #B7A238",
"[  c #C29E04",
"{  c #CB9E08",
"}  c #C39E11",
"|  c #C4A304",
" . c #CBAC05",
".. c #C5A50A",
"X. c #CAA20D",
"o. c #C3AA0A",
"O. c #CBAC0C",
"+. c #C7A807",
"@. c #D1AC09",
"#. c #CCB10B",
"$. c #D3B605",
"%. c #DFBB03",
"&. c #D6B40B",
"*. c #DDBD0C",
"=. c #DAB70A",
"-. c #C4A313",
";. c #C6AA13",
":. c #CCAC14",
">. c #C4A31A",
",. c #CDAC1B",
"<. c #C8A616",
"1. c #D2AB16",
"2. c #CCB214",
"3. c #CCB11C",
"4. c #D1B315",
"5. c #D2B21C",
"6. c #D3BA1C",
"7. c #DDB619",
"8. c #E2BB0B",
"9. c #E2BA0A",
"0. c #E3BF19",
"q. c #C5A927",
"w. c #CBB125",
"e. c #CAB22B",
"r. c #D3B423",
"t. c #DDBC27",
"y. c #D7BB28",
"u. c #C1AB3B",
"i. c #C7AB32",
"p. c #C4B13C",
"a. c #E1BE30",
"s. c #DEC11F",
"d. c #E7C706",
"f. c #F5CA0A",
"g. c #EFD30D",
"h. c #F7D301",
"j. c #FAD505",
"k. c #FCD50C",
"l. c #FEDA0B",
"z. c #F9D608",
"x. c #EDC51E",
"c. c #E7C516",
"v. c #F6CC16",
"b. c #FCCE1C",
"n. c #FBCE11",
"m. c #EDD012",
"M. c #F5D513",
"N. c #FBD313",
"B. c #F3D31D",
"V. c #FDD31C",
"C. c #FBD91A",
"Z. c #DCC327",
"A. c #DBC136",
"S. c #E2C42C",
"D. c #E7C626",
"F. c #F6CA28",
"G. c #EED429",
"H. c #F4D424",
"J. c #FCD522",
"K. c #F9D42D",
"L. c #FBDA2C",
"P. c #FBDA2A",
"I. c #E3C433",
"U. c #EACF3C",
"Y. c #E7CC35",
"T. c #F8CC34",
"R. c #FCDC35",
"E. c #F1D43B",
"W. c #FBDA3C",
"Q. c #F5DB39",
"!. c #FFE33C",
"~. c #FFE131",
"^. c #9F964F",
"/. c #A79343",
"(. c #BCA544",
"). c #898263",
"_. c #969475",
"`. c #C2AF46",
"'. c #C8B549",
"]. c #D1B842",
"[. c #DAC442",
"{. c #DBC856",
"}. c #ECCE43",
"|. c #F1CE40",
" X c #EAD64B",
".X c #F5DC45",
"XX c #F8D946",
"oX c #E2CE5A",
"OX c #F5DC54",
"+X c #F9DE55",
"@X c #F0D457",
"#X c #FFE244",
"$X c #FDE84A",
"%X c #FDE45A",
"&X c #DDC867",
"*X c #DCCF73",
"=X c #E8D565",
"-X c #F7DE68",
";X c #EADB78",
":X c #F5DD77",
">X c #FDE56A",
",X c #F9E272",
"<X c #AFAF98",
"1X c #C0BA9E",
"2X c #C9C291",
"3X c #E6D584",
"4X c #E8DF9C",
"5X c #EFE081",
"6X c #F3E18A",
"7X c #FCED99",
"8X c #ECE1A0",
"9X c #F9F0B1",
/* pixels */
"                                                                                                    ",
"                                                                                                    ",
"                                                                                                    ",
"                                                                                                    ",
"                                                                                                    ",
"                                                                                                    ",
"                                                                                                    ",
"                                                                                                    ",
"                                      - o O # X @ X O X . _.                                        ",
"                                      ^.E k W k g g h 0 8 t p                                       ",
"                                  > 9 =X%X.XY.t.t.t.y.e.p.h % % e                                   ",
"                                  3XoX XZ.H.P.K.D.K.c.O.w.^ ( /.r %                                 ",
"                                7X:XOX.Xs.+.[ X.1.X...[ :.,.i./ ! 8 r                               ",
"                                :X-X}.S.D v m b N f b m ..5.-.>./ ] 3 2                             ",
"                              8X:Xi.m C U o.:...<.;.5.F m b m ..<.L ~ 0 >                           ",
"                            4X;X].G J n 6.S.Z.Y.I.Z.y.4.| A S S | F ` ! 5 ).                        ",
"                            :X[.x ;.r.r.}.+X%X+X+X%XU.o.&.=. .A m 5.K / (.8 *                       ",
"                          ;X` H ;.Y.XX}.e.P G G H C Z C 0.0.&. .J A [ >./ 4 %                       ",
"                          :XM v 3.E.#XW.J d x C D D C v :.7.=.&.:.d D 5.T 9 6 1X                    ",
"                        6X=XG G r.E.R.K.A x n o.B.H.#.s v } x.8...v X.5.A ^ Q - <X                  ",
"                        &X^ K 5.U.W.J.J.F x x #.B.C.O.v j J J.9.#...B A :.T E $ ).                  ",
"                ,       `.x -.I.#XR.v.V.U x s 4.B.J.4.m j S J.d.$.O.S b 2.w.( $ u                   ",
"                1       u.x ,.S.$XL.b.b.F x c ,.K.K.1.j j F V.k.m.$.B j :.` W % y                   ",
"                ,       p.x } D.!.H.V.b.D v x G { { S v +.*.k.z.d.$.S b ,.q.( % y                   ",
"                <       p.x ,.D.!.H.V.v.F x d b N V N S *.M.l.h.g.$.S v ,.q.) # i                   ",
"                ,       u.n -.D.R.H.V.V.D d v >.T.F.x.c.M.z.j.j.g. .F b X.T Q % i                   ",
"                        '.x ,.S.$XH.v.V.U x x ,.T.b.V.k.l.h.h.d.c.#.D v 4.q.E $                     ",
"                        (.M Y S.XXK.V.J.D x x ,.F.n.k.h.j.j.j.d.$.+.A m O.T ) =                     ",
"                        3X{.H F t.W.~.H.D x x O.J.k.l.h.j.k.M.%.+.A | | J ' /.+                     ",
"                          -Xs A :.T.!.Q.Y x x 1.v.f.j.h.k.f.f.*...v ..:.K ! w                       ",
"                          =XP m y.W.$X.Xq.x d :.J.N.l.j.N.f.9. .| b D ,.q.7                         ",
"                          5XoXw.m 5.S.A.A.[.I.W.L.P.M.9.8.8.@.D A ;...` (.5                         ",
"                          9X;X{.G } -.K Y..XE.Q.G.R.D.#.O...X.S S ,.L ~ l                           ",
"                          9X7X;X>XA m m F 2.6.6.6.2.O.O.m j v -.,.G ] Q X                           ",
"                          a 4X7X@Xa.:.O.F S B B B S S D | ..F w.q.u.9 5                             ",
"                            2X3X,XOXE.#X+.b S N N B b m  .:.w.i.u.W 3                               ",
"                              t 6X,XOXS.G.H.D.F.F.x.c.$.#.;.' ] k %                                 ",
"                              p r h ~  X#XE.I.|.I.S.Z.2.R I 4 5 w                                   ",
"                                  O 5 *X{.'.&X(._ _ _ ] ) q % O                                     ",
"                                      : : = ; & & ; ; = O e                                         ",
"                                          ).u y y z _.                                              ",
"                                                                                                    ",
"                                                                                                    ",
"                                                                                                    ",
"                                                                                                    ",
"                                                                                                    ",
"                                                                                                    ",
"                                                                                                    ",
"                                                                                                    ",
"                                                                                                    "
};
